PathFileType	4	(x/y/z)	TRC_MarkerData\Passive\Passive_Pref0005.trc
DataRate	CameraRate	NumFrames	NumMarkers	Units	OrigDataRate	OrigDataStartFrame	OrigNumFrames
240	240	10	50	mm	240	1	304
Frame#	Time	R_AC			L_AC			HEAD			STERN			C7			L_IC			R_IC			L_ASIS			R_ASIS			L_GT			R_GT			L_PSIS			R_PSIS			SACRAL			L_LAT_KNEE			L_MED_KNEE			R_LAT_KNEE			R_MED_KNEE			L_LAT_ANK			L_MED_ANK			R_LAT_ANK			R_MED_ANK			L_THIGH_PROX_POST			L_THIGH_PROX_ANT			L_THIGH_DIST_ANT			L_THIGH_DIST_POST			R_THIGH_PROX_POST			R_THIGH_PROX_ANT			R_THIGH_DIST_ANT			R_THIGH_DIST_POST			L_SHANK_PROX_POST			L_SHANK_PROX_ANT			L_SHANK_DIST_ANT			L_SHANK_DIST_POST			R_SHANK_PROX_POST			R_SHANK_PROX_ANT			R_SHANK_DIST_ANT			R_SHANK_DIST_POST			L_HEEL_LAT			L_HEEL_SUP			L_HEEL_MED			R_HEEL_LAT			R_HEEL_SUP			R_HEEL_MED			L_1ST_MET			L_5TH_MET			L_TOE			R_1ST_MET			R_5TH_MET			R_TOE			
		X1	Y1	Z1	X2	Y2	Z2	X3	Y3	Z3	X4	Y4	Z4	X5	Y5	Z5	X6	Y6	Z6	X7	Y7	Z7	X8	Y8	Z8	X9	Y9	Z9	X10	Y10	Z10	X11	Y11	Z11	X12	Y12	Z12	X13	Y13	Z13	X14	Y14	Z14	X15	Y15	Z15	X16	Y16	Z16	X17	Y17	Z17	X18	Y18	Z18	X19	Y19	Z19	X20	Y20	Z20	X21	Y21	Z21	X22	Y22	Z22	X23	Y23	Z23	X24	Y24	Z24	X25	Y25	Z25	X26	Y26	Z26	X27	Y27	Z27	X28	Y28	Z28	X29	Y29	Z29	X30	Y30	Z30	X31	Y31	Z31	X32	Y32	Z32	X33	Y33	Z33	X34	Y34	Z34	X35	Y35	Z35	X36	Y36	Z36	X37	Y37	Z37	X38	Y38	Z38	X39	Y39	Z39	X40	Y40	Z40	X41	Y41	Z41	X42	Y42	Z42	X43	Y43	Z43	X44	Y44	Z44	X45	Y45	Z45	X46	Y46	Z46	X47	Y47	Z47	X48	Y48	Z48	X49	Y49	Z49	X50	Y50	Z50	

1	0	-916.44	1494.3	459.44	-929.47	1518.3	67.953	-807.36	1805.6	278.91	-822.07	1464.4	263.18	-963.07	1553.1	268.03	-935.84	1057.9	103.4	-938.64	1082.2	444.73	-858.83	1007.3	146.12	-873.9	999.24	418.55	-923.63	924.48	84.335	-979.46	942.61	458.77	-1071.8	1019.2	216.34	-1067.9	1033.4	322.66	-1082.7	1005.2	270.1	-741.19	562.45	137.55	-732.32	574.55	275.28	-1122.5	554.89	411.65	-1098.3	546.88	286.8	-587.78	135.99	145.2	-593.01	135.51	224.76	-1334.2	142.97	342.52	-1296.4	154.13	247.5	-888.06	772.39	104.91	-824.1	794.01	107.41	-796.12	724.92	121.07	-856.87	705.28	117.6	-1054.5	792.37	446.4	-991.38	769.93	455.19	-1020.6	702.29	441.83	-1083.6	724.99	429.55	-712.41	517.23	144.66	-682.05	549.1	159.09	-659	504.61	164.73	-692.37	467.06	148.71	-1260.6	440.34	387.99	-1197	422.01	413.02	-1217.3	351.51	398.96	-1281.1	367.13	375.87	-608.72	40.389	143.23	-634.72	56.588	178.44	-609.09	30.762	209.95	-1412.3	113.89	309.75	-1409.8	141.1	275.08	-1395.2	107.98	244.34	-417.61	144.93	249.45	-423.58	137.1	142.7	-375.72	179.69	228.72	-1179.4	42.23	275.63	-1227.9	39.354	380.34	-1139.9	41.962	331.25
2	0.0041804	-911.13	1493.8	458.85	-924.44	1517.7	67.349	-802.33	1805.2	278.32	-816.88	1464	262.56	-957.89	1552.5	267.44	-930.38	1057.2	103.1	-933.19	1081.8	444.39	-853.01	1006.8	145.82	-868.16	998.85	418.15	-918.02	923.72	84.189	-974.16	942.18	458.5	-1066.1	1018.6	216.01	-1062.3	1032.8	322.25	-1077.1	1004.6	269.73	-737.43	560.97	137.64	-728.85	572.92	275.25	-1117.3	554.5	411.43	-1092.9	546.21	286.56	-585.84	134.33	145.39	-591.1	133.82	225.06	-1332.6	144.52	342.56	-1294.6	155.36	247.56	-883.17	771.28	104.88	-819.33	792.56	107.17	-791.5	723.48	120.69	-852.57	704.07	117.78	-1049.2	792.04	445.93	-986.17	769.59	454.87	-1015.4	701.93	441.54	-1078.4	724.64	429.12	-708.86	515.62	144.79	-678.37	547.35	159.26	-655.54	502.75	164.94	-689.04	465.37	148.87	-1256.1	441.13	387.82	-1192.8	422.18	412.89	-1213.8	351.92	398.8	-1277.4	368.12	375.76	-607.74	39.453	143.44	-633.33	56.004	178.64	-608.26	30.011	210.17	-1411.2	116.24	309.41	-1407.8	143.36	274.94	-1393.9	110.35	244.28	-415.73	141.9	249.84	-421.68	134.14	143.11	-373.56	176.36	229.13	-1179.3	42.14	275.6	-1227.7	39.503	380.37	-1139.8	41.881	331.22
3	0.0083608	-905.6	1493.4	458.24	-919.2	1517.1	66.716	-797.07	1804.7	277.69	-811.47	1463.5	261.91	-952.5	1552	266.82	-924.66	1056.6	102.78	-927.49	1081.3	444.04	-846.93	1006.3	145.52	-862.17	998.45	417.74	-912.16	922.92	84.035	-968.6	941.73	458.21	-1060.1	1018	215.65	-1056.5	1032.3	321.82	-1071.1	1004	269.33	-733.53	559.46	137.73	-725.26	571.27	275.22	-1111.8	554.1	411.23	-1087.2	545.52	286.34	-583.84	132.64	145.57	-589.14	132.09	225.36	-1331	146.15	342.6	-1292.6	156.65	247.63	-878.08	770.15	104.85	-814.35	791.06	106.92	-786.71	721.98	120.3	-848.09	702.83	117.97	-1043.8	791.68	445.43	-980.7	769.24	454.54	-1009.9	701.55	441.24	-1072.9	724.27	428.68	-705.17	513.99	144.92	-674.55	545.57	159.43	-651.95	500.85	165.16	-685.58	463.65	149.02	-1251.4	441.95	387.65	-1188.3	422.36	412.77	-1210	352.35	398.66	-1273.4	369.16	375.65	-606.74	38.514	143.64	-631.9	55.444	178.82	-607.42	29.276	210.36	-1410	118.74	309.08	-1405.7	145.76	274.8	-1392.4	112.85	244.21	-413.81	138.78	250.25	-419.74	131.09	143.53	-371.35	172.91	229.57	-1179.1	42.045	275.56	-1227.5	39.667	380.4	-1139.6	41.799	331.2
4	0.012541	-899.89	1493	457.59	-913.77	1516.5	66.056	-791.63	1804.3	277.04	-805.87	1463	261.23	-946.94	1551.5	266.17	-918.71	1055.9	102.46	-921.56	1080.9	443.67	-840.62	1005.7	145.2	-855.96	998.05	417.32	-906.1	922.11	83.874	-962.83	941.28	457.9	-1053.8	1017.4	215.27	-1050.4	1031.7	321.37	-1065	1003.5	268.91	-729.5	557.96	137.82	-721.58	569.61	275.2	-1106.1	553.67	411.03	-1081.2	544.78	286.14	-581.81	130.95	145.72	-587.17	130.36	225.65	-1329.2	147.87	342.65	-1290.6	158	247.7	-872.82	769.01	104.82	-809.21	789.53	106.67	-781.77	720.44	119.92	-843.46	701.58	118.15	-1038	791.31	444.92	-975	768.88	454.2	-1004.2	701.16	440.94	-1067.2	723.87	428.22	-701.37	512.35	145.04	-670.62	543.79	159.62	-648.25	498.94	165.39	-682.03	461.93	149.17	-1246.5	442.81	387.49	-1183.6	422.55	412.66	-1206.1	352.8	398.52	-1269.2	370.25	375.54	-605.74	37.589	143.82	-630.46	54.924	178.95	-606.59	28.574	210.53	-1408.6	121.39	308.76	-1403.4	148.31	274.65	-1390.9	115.49	244.13	-411.88	135.58	250.67	-417.76	127.97	143.97	-369.12	169.37	230.04	-1178.9	41.946	275.52	-1227.3	39.847	380.42	-1139.5	41.716	331.17
5	0.016722	-894.03	1492.6	456.93	-908.2	1516	65.372	-786.03	1803.8	276.37	-800.12	1462.6	260.54	-941.24	1550.9	265.5	-912.57	1055.2	102.13	-915.44	1080.5	443.28	-834.12	1005.1	144.88	-849.55	997.65	416.9	-899.86	921.29	83.704	-956.87	940.83	457.57	-1047.4	1016.8	214.87	-1044.2	1031.1	320.89	-1058.7	1002.9	268.47	-725.37	556.49	137.9	-717.81	567.96	275.18	-1100.1	553.22	410.86	-1075	544.01	285.96	-579.77	129.27	145.84	-585.2	128.64	225.93	-1327.3	149.66	342.71	-1288.4	159.4	247.78	-867.44	767.88	104.78	-803.92	787.99	106.4	-776.73	718.87	119.54	-838.71	700.32	118.31	-1032.1	790.92	444.39	-969.09	768.52	453.85	-998.24	700.76	440.64	-1061.2	723.45	427.76	-697.48	510.73	145.17	-666.6	542.01	159.81	-644.48	497.04	165.62	-678.41	460.22	149.31	-1241.3	443.69	387.33	-1178.7	422.75	412.55	-1201.9	353.27	398.4	-1264.8	371.39	375.43	-604.75	36.69	143.97	-629.01	54.456	179.05	-605.79	27.919	210.66	-1407.2	124.19	308.46	-1401.1	151.01	274.49	-1389.3	118.26	244.04	-409.96	132.34	251.11	-415.79	124.81	144.41	-366.89	165.77	230.54	-1178.7	41.845	275.47	-1227.1	40.045	380.45	-1139.4	41.631	331.14
6	0.020902	-888.07	1492.2	456.23	-902.49	1515.4	64.666	-780.31	1803.4	275.68	-794.24	1462.2	259.83	-935.42	1550.4	264.8	-906.27	1054.5	101.79	-909.15	1080	442.88	-827.47	1004.6	144.55	-842.98	997.25	416.48	-893.49	920.47	83.526	-950.74	940.38	457.22	-1040.9	1016.2	214.46	-1037.8	1030.5	320.38	-1052.2	1002.4	268.01	-721.17	555.06	137.98	-713.99	566.35	275.15	-1093.9	552.75	410.71	-1068.5	543.21	285.82	-577.73	127.63	145.92	-583.25	126.94	226.19	-1325.3	151.53	342.78	-1286.1	160.85	247.88	-861.96	766.78	104.73	-798.51	786.45	106.13	-771.6	717.29	119.18	-833.87	699.08	118.46	-1026	790.52	443.86	-962.98	768.15	453.5	-992.1	700.35	440.34	-1055.1	723.02	427.3	-693.52	509.16	145.28	-662.51	540.28	160	-640.64	495.18	165.85	-674.73	458.55	149.44	-1236	444.6	387.18	-1173.6	422.96	412.46	-1197.7	353.75	398.3	-1260.3	372.57	375.34	-603.78	35.83	144.08	-627.56	54.047	179.1	-605.03	27.322	210.75	-1405.5	127.13	308.18	-1398.6	153.84	274.32	-1387.5	121.15	243.94	-408.08	129.08	251.55	-413.82	121.65	144.86	-364.68	162.13	231.06	-1178.5	41.742	275.42	-1226.9	40.264	380.48	-1139.2	41.546	331.11
7	0.025083	-882.02	1491.8	455.52	-896.69	1514.8	63.941	-774.48	1803	274.97	-788.26	1461.8	259.1	-929.52	1549.9	264.07	-899.82	1053.8	101.46	-902.72	1079.7	442.46	-820.68	1004	144.21	-836.27	996.86	416.05	-887	919.66	83.337	-944.46	939.95	456.85	-1034.2	1015.6	214.02	-1031.3	1030	319.86	-1045.6	1001.9	267.54	-716.9	553.7	138.04	-710.12	564.8	275.13	-1087.6	552.25	410.59	-1061.8	542.37	285.71	-575.7	126.04	145.97	-581.34	125.3	226.44	-1323.2	153.47	342.85	-1283.7	162.34	247.99	-856.4	765.73	104.67	-793.01	784.94	105.85	-766.41	715.72	118.82	-828.94	697.88	118.59	-1019.7	790.11	443.32	-956.71	767.78	453.13	-985.78	699.93	440.04	-1048.7	722.56	426.83	-689.52	507.65	145.38	-658.36	538.59	160.19	-636.76	493.36	166.07	-671.01	456.95	149.56	-1230.5	445.52	387.06	-1168.4	423.18	412.4	-1193.2	354.26	398.22	-1255.6	373.78	375.27	-602.83	35.016	144.17	-626.13	53.704	179.1	-604.3	26.79	210.8	-1403.7	130.21	307.92	-1396.1	156.82	274.15	-1385.6	124.17	243.84	-406.24	125.82	252	-411.88	118.49	145.31	-362.51	158.49	231.59	-1178.3	41.638	275.36	-1226.7	40.506	380.5	-1139.1	41.459	331.07
8	0.029263	-875.92	1491.4	454.79	-890.81	1514.3	63.198	-768.57	1802.6	274.25	-782.2	1461.5	258.37	-923.56	1549.4	263.33	-893.25	1053.2	101.12	-896.17	1079.3	442.03	-813.8	1003.4	143.87	-829.46	996.47	415.63	-880.43	918.88	83.137	-938.05	939.52	456.45	-1027.4	1015.1	213.57	-1024.6	1029.5	319.31	-1038.9	1001.4	267.05	-712.58	552.42	138.09	-706.2	563.33	275.11	-1081	551.74	410.51	-1054.9	541.5	285.65	-573.71	124.5	145.99	-579.47	123.72	226.67	-1321	155.47	342.94	-1281.1	163.88	248.12	-850.78	764.73	104.6	-787.44	783.48	105.56	-761.18	714.18	118.47	-823.95	696.73	118.7	-1013.3	789.69	442.77	-950.29	767.41	452.77	-979.29	699.5	439.75	-1042.3	722.07	426.37	-685.47	506.22	145.47	-654.17	536.98	160.38	-632.84	491.62	166.28	-667.26	455.42	149.67	-1224.8	446.46	386.95	-1163	423.41	412.35	-1188.7	354.78	398.17	-1250.7	375.02	375.21	-601.92	34.26	144.22	-624.74	53.43	179.06	-603.61	26.327	210.81	-1401.8	133.44	307.69	-1393.4	159.93	273.99	-1383.5	127.32	243.72	-404.45	122.6	252.43	-409.99	115.36	145.74	-360.4	154.86	232.13	-1178	41.536	275.29	-1226.4	40.773	380.52	-1139	41.37	331.04
9	0.033443	-869.78	1491.1	454.04	-884.87	1513.8	62.439	-762.59	1802.3	273.52	-776.08	1461.2	257.63	-917.56	1548.9	262.56	-886.58	1052.6	100.79	-889.51	1079	441.59	-806.85	1002.9	143.52	-822.56	996.1	415.21	-873.81	918.14	82.923	-931.54	939.1	456.04	-1020.6	1014.6	213.1	-1017.9	1029	318.76	-1032.1	1000.9	266.56	-708.21	551.24	138.13	-702.23	561.96	275.08	-1074.3	551.21	410.47	-1047.8	540.6	285.63	-571.76	123.04	145.98	-577.66	122.22	226.88	-1318.6	157.53	343.06	-1278.4	165.45	248.27	-845.12	763.82	104.51	-781.81	782.08	105.27	-755.91	712.7	118.13	-818.9	695.66	118.77	-1006.7	789.25	442.23	-943.71	767.04	452.4	-972.65	699.06	439.47	-1035.6	721.56	425.93	-681.39	504.88	145.54	-649.95	535.45	160.55	-628.9	489.96	166.48	-663.49	453.98	149.75	-1218.9	447.41	386.87	-1157.5	423.63	412.33	-1183.9	355.32	398.16	-1245.7	376.3	375.17	-601.05	33.566	144.24	-623.38	53.226	178.99	-602.96	25.936	210.79	-1399.7	136.8	307.49	-1390.6	163.17	273.83	-1381.3	130.58	243.61	-402.73	119.42	252.86	-408.15	112.29	146.17	-358.35	151.27	232.66	-1177.8	41.437	275.22	-1226.2	41.07	380.54	-1138.9	41.277	331.01
10	0.037624	-863.64	1490.9	453.28	-878.88	1513.3	61.665	-756.57	1802	272.79	-769.92	1460.9	256.88	-911.52	1548.5	261.77	-879.82	1052	100.45	-882.76	1078.7	441.14	-799.85	1002.3	143.16	-815.6	995.74	414.79	-867.16	917.45	82.692	-924.93	938.69	455.61	-1013.7	1014.2	212.63	-1011	1028.5	318.2	-1025.2	1000.5	266.06	-703.8	550.17	138.14	-698.21	560.7	275.04	-1067.4	550.65	410.47	-1040.5	539.66	285.67	-569.87	121.66	145.94	-575.9	120.81	227.08	-1316.2	159.65	343.19	-1275.5	167.06	248.46	-839.43	762.99	104.39	-776.13	780.78	104.96	-750.61	711.3	117.8	-813.8	694.67	118.81	-999.99	788.79	441.7	-937.01	766.66	452.03	-965.87	698.62	439.21	-1028.8	721.03	425.5	-677.27	503.65	145.59	-645.69	534.03	160.7	-624.92	488.4	166.65	-659.7	452.64	149.82	-1212.9	448.36	386.82	-1151.8	423.87	412.35	-1179.1	355.87	398.19	-1240.5	377.59	375.17	-600.22	32.943	144.24	-622.06	53.09	178.88	-602.36	25.617	210.75	-1397.4	140.31	307.33	-1387.7	166.53	273.69	-1378.9	133.97	243.5	-401.08	116.3	253.26	-406.38	109.28	146.57	-356.36	147.74	233.18	-1177.5	41.343	275.15	-1225.9	41.398	380.55	-1138.8	41.178	330.98
